# xmcd
#
# Track frame offsets:
# 150
# 27537
# 39650
# 62155
# 79627
# 89832
# 109730
# 130042
# 146710
# 178897
# 207462
# 229927
#
# Disc length: 3383 seconds
#
#
# Revision: 0
# Processed by: cddbd v1.5.1PL0 Copyright (c) Steve Scherf et al.
# Submitted via: FreeRIP 2.942 
#
DISCID=b30d350c
DTITLE=Ciro Fogliatta and The Bluesmasters - Live in Barcelona
DYEAR=1900
DGENRE=blues
TTITLE0=Michigan Water Blues
TTITLE1=Cherry Red
TTITLE2=Summertime
TTITLE3=When I Been Drinkin'
TTITLE4=Jig Saw Puzzle Blues
TTITLE5=Mujer de Carbon
TTITLE6=Please, Mr.Johnson
TTITLE7=Be Bop a Lula
TTITLE8=drinkin' Wine Spo-Dee-O-Dee
TTITLE9=Let Me Die
TTITLE10=Madison Blues
TTITLE11=Jugo de Tomate
EXTD=
EXTT0=
EXTT1=
EXTT2=
EXTT3=
EXTT4=
EXTT5=
EXTT6=
EXTT7=
EXTT8=
EXTT9=
EXTT10=
EXTT11=
PLAYORDER=
